<svg width="70" height="863" viewBox="0 0 70 863" fill="none" xmlns="http://www.w3.org/2000/svg">
<path fill-rule="evenodd" clip-rule="evenodd" d="M35 798.833C46.2758 798.833 55.4166 807.974 55.4166 819.25C55.4166 822.659 54.5834 825.872 53.1039 828.698L35 860.083L17.3154 829.459C15.575 826.454 14.5833 822.969 14.5833 819.25C14.5833 807.974 23.7242 798.833 35 798.833ZM35 804.667C26.9458 804.667 20.4166 811.196 20.4166 819.25C20.4166 821.566 20.9509 823.788 21.962 825.794L22.452 826.689L35 848.417L47.6366 826.536C48.9071 824.342 49.5833 821.855 49.5833 819.25C49.5833 811.196 43.0541 804.667 35 804.667ZM35 810.5C39.8325 810.5 43.75 814.417 43.75 819.25C43.75 824.082 39.8325 828 35 828C30.1675 828 26.25 824.082 26.25 819.25C26.25 814.417 30.1675 810.5 35 810.5ZM35 816.333C33.3891 816.333 32.0833 817.639 32.0833 819.25C32.0833 820.861 33.3891 822.167 35 822.167C36.6108 822.167 37.9166 820.861 37.9166 819.25C37.9166 817.639 36.6108 816.333 35 816.333Z" fill="#0E0E0E"/>
</svg>
