<svg width="59" height="859" viewBox="0 0 59 859" fill="none" xmlns="http://www.w3.org/2000/svg">
<path d="M35.6458 815.979C37.458 816.333 39.2569 817.132 40.5625 818.437C41.8681 819.743 42.6673 821.542 43.0208 823.354M36.875 807.375C40.64 807.793 44.028 809.615 46.7083 812.292C49.3887 814.969 51.202 818.361 51.625 822.125M51.6237 840.505V847.167C51.634 849.713 49.3443 851.84 46.7734 851.608C24.5835 851.625 7.37515 834.257 7.39252 812.216C7.16097 809.659 9.27686 807.378 11.8201 807.375H18.4948C19.5746 807.365 20.6214 807.746 21.4401 808.449C23.7676 810.447 25.2648 817.227 24.6887 819.923C24.239 822.028 22.1175 823.5 20.6752 824.939C23.8425 830.499 28.4545 835.101 34.0247 838.262C35.467 836.823 36.9423 834.706 39.051 834.257C41.7561 833.681 48.5805 835.18 50.5702 837.524C51.2758 838.355 51.6507 839.416 51.6237 840.505Z" stroke="#0E0E0E" stroke-width="6" stroke-linecap="round" stroke-linejoin="round"/>
</svg>
