<svg width="70" height="70" viewBox="0 0 70 70" fill="none" xmlns="http://www.w3.org/2000/svg">
<path fill-rule="evenodd" clip-rule="evenodd" d="M35 5.83325C46.2758 5.83325 55.4166 14.9741 55.4166 26.2499C55.4166 29.6592 54.5834 32.8716 53.1039 35.6982L35 67.0833L17.3154 36.4594C15.575 33.4541 14.5833 29.9692 14.5833 26.2499C14.5833 14.9741 23.7242 5.83325 35 5.83325ZM35 11.6666C26.9458 11.6666 20.4166 18.1958 20.4166 26.2499C20.4166 28.5659 20.9509 30.7881 21.962 32.7942L22.452 33.6892L35 55.4166L47.6366 33.5361C48.9071 31.3422 49.5833 28.8554 49.5833 26.2499C49.5833 18.1958 43.0541 11.6666 35 11.6666ZM35 17.4999C39.8325 17.4999 43.75 21.4174 43.75 26.2499C43.75 31.0824 39.8325 34.9999 35 34.9999C30.1675 34.9999 26.25 31.0824 26.25 26.2499C26.25 21.4174 30.1675 17.4999 35 17.4999ZM35 23.3333C33.3891 23.3333 32.0833 24.6391 32.0833 26.2499C32.0833 27.8607 33.3891 29.1666 35 29.1666C36.6108 29.1666 37.9166 27.8607 37.9166 26.2499C37.9166 24.6391 36.6108 23.3333 35 23.3333Z" fill="#0E0E0E"/>
</svg>
