<svg width="260" height="196" viewBox="0 0 260 196" fill="none" xmlns="http://www.w3.org/2000/svg">
<g filter="url(#filter0_d_391_47)">
<path d="M4 30C4 13.4315 17.4315 0 34 0H226C242.569 0 256 13.4315 256 30V158C256 174.569 242.569 188 226 188H34C17.4315 188 4 174.569 4 158V30Z" fill="#F8F5EC"/>
<path d="M5.5 30C5.5 14.2599 18.2599 1.5 34 1.5H226C241.74 1.5 254.5 14.2599 254.5 30V158C254.5 173.74 241.74 186.5 226 186.5H34C18.2599 186.5 5.5 173.74 5.5 158V30Z" stroke="#FFCA0C" stroke-width="3"/>
</g>
<defs>
<filter id="filter0_d_391_47" x="0" y="0" width="260" height="196" filterUnits="userSpaceOnUse" color-interpolation-filters="sRGB">
<feFlood flood-opacity="0" result="BackgroundImageFix"/>
<feColorMatrix in="SourceAlpha" type="matrix" values="0 0 0 0 0 0 0 0 0 0 0 0 0 0 0 0 0 0 127 0" result="hardAlpha"/>
<feOffset dy="4"/>
<feGaussianBlur stdDeviation="2"/>
<feComposite in2="hardAlpha" operator="out"/>
<feColorMatrix type="matrix" values="0 0 0 0 0 0 0 0 0 0 0 0 0 0 0 0 0 0 0.25 0"/>
<feBlend mode="normal" in2="BackgroundImageFix" result="effect1_dropShadow_391_47"/>
<feBlend mode="normal" in="SourceGraphic" in2="effect1_dropShadow_391_47" result="shape"/>
</filter>
</defs>
</svg>
